<?xml version="1.0" standalone="no"?>
<!DOCTYPE svg PUBLIC "-//W3C//DTD SVG 1.1//EN" "http://www.w3.org/Graphics/SVG/1.1/DTD/svg11.dtd">
<svg viewBox="0 0 1600 1000" version="1.1" xmlns="http://www.w3.org/2000/svg" xmlns:xlink="http://www.w3.org/1999/xlink" xml:space="preserve" style="fill-rule:evenodd;clip-rule:evenodd;stroke-miterlimit:1.41421;">
    <g>
        <g id="Layer2">
            <g>
                <path d="M0,1000L0,773.978L116.03,714.128L52.7374,513.59L0,704.054L0,413.116L52.7374,513.59L116.03,714.128L391.361,1000L0,1000Z" style="fill:none;stroke-width:1px;stroke:rgb(51,51,51);"/>
                <path d="M0,1000L0,773.978L116.03,714.128L52.7374,513.59L0,704.054L0,413.116L52.7374,513.59L116.03,714.128L391.361,1000L0,1000Z" style="fill:rgb(51,51,51);"/>
            </g>
            <g>
                <path d="M894.935,1000L1090.18,755.522L1206.22,875.35L1408.91,784.861L1174.73,649.649L1427.67,677.161L1522.87,550.82L1600,491.793L1600,584.458L1522.87,550.82L1557.05,701.05L1600,640.898L1600,758.092L1557.05,701.05L1408.91,784.861L1600,860.795L1600,1000L894.935,1000Z" style="fill:none;stroke-width:1px;stroke:rgb(64,64,64);"/>
                <path d="M894.935,1000L1090.18,755.522L1206.22,875.35L1408.91,784.861L1174.73,649.649L1427.67,677.161L1522.87,550.82L1600,491.793L1600,584.458L1522.87,550.82L1557.05,701.05L1600,640.898L1600,758.092L1557.05,701.05L1408.91,784.861L1600,860.795L1600,1000L894.935,1000Z" style="fill:rgb(58,58,58);"/>
            </g>
            <g>
                <path d="M86.3994,392.018L0,357.273L0,268.483L60.017,275.402L86.3994,392.018Z" style="fill:none;stroke-width:1px;stroke:rgb(77,77,77);"/>
                <path d="M86.3994,392.018L0,357.273L0,268.483L60.017,275.402L86.3994,392.018Z" style="fill:rgb(77,77,77);"/>
            </g>
            <g>
                <path d="M661.644,1000L485.477,1000L556.004,648.281L439.892,665.658L289.195,315.072L86.3994,392.018L233.412,196.032L289.195,315.072L556.004,648.281L743.928,698.575L524.016,513.111L461.664,249.632L470.298,0L342.877,36.2192L259.826,0L568.796,0L461.664,249.632L621.296,157.64L872.472,93.7593L642.465,0L872.472,0L872.472,93.7593L1043.44,163.453L621.296,157.64L955.784,303.512L1035.16,665.5L936.428,676.713L955.784,303.512L734.515,657.055L694.799,481.865L955.784,303.512L698.556,237.961L461.664,249.632L743.928,698.575L812.261,1000L726.66,1000L743.928,698.575L516.692,844.329L661.644,1000Z" style="fill:none;stroke-width:1px;stroke:rgb(64,64,64);"/>
                <path d="M661.644,1000L485.477,1000L556.004,648.281L439.892,665.658L289.195,315.072L86.3994,392.018L233.412,196.032L289.195,315.072L556.004,648.281L743.928,698.575L524.016,513.111L461.664,249.632L470.298,0L342.877,36.2192L259.826,0L568.796,0L461.664,249.632L621.296,157.64L872.472,93.7593L642.465,0L872.472,0L872.472,93.7593L1043.44,163.453L621.296,157.64L955.784,303.512L1035.16,665.5L936.428,676.713L955.784,303.512L734.515,657.055L694.799,481.865L955.784,303.512L698.556,237.961L461.664,249.632L743.928,698.575L812.261,1000L726.66,1000L743.928,698.575L516.692,844.329L661.644,1000Z" style="fill:rgb(64,64,64);"/>
            </g>
            <g>
                <path d="M1043.44,163.453L1145.74,0L1214.87,0L1043.44,163.453Z" style="fill:none;stroke-width:1px;stroke:rgb(77,77,77);"/>
                <path d="M1043.44,163.453L1145.74,0L1214.87,0L1043.44,163.453Z" style="fill:rgb(77,77,77);"/>
            </g>
            <g>
                <path d="M150.853,159.241L0,92.0175L0,0L194.945,0L150.853,159.241Z" style="fill:none;stroke-width:1px;stroke:rgb(51,51,51);"/>
                <path d="M150.853,159.241L0,92.0175L0,0L194.945,0L150.853,159.241Z" style="fill:rgb(51,51,51);"/>
            </g>
            <g>
                <path d="M1430.05,119.533L1345.46,0L1600,0L1600,114.897L1430.05,119.533Z" style="fill:none;stroke-width:1px;stroke:rgb(77,77,77);"/>
                <path d="M1430.05,119.533L1345.46,0L1600,0L1600,114.897L1430.05,119.533Z" style="fill:rgb(51,51,51);"/>
            </g>
            <g>
                <path d="M485.477,1000L391.361,1000L116.03,714.128L516.692,844.329L439.892,665.658L556.004,648.281L485.477,1000Z" style="fill:none;stroke-width:1px;stroke:rgb(77,77,77);"/>
                <path d="M485.477,1000L391.361,1000L116.03,714.128L516.692,844.329L439.892,665.658L556.004,648.281L485.477,1000Z" style="fill:rgb(64,64,64);"/>
            </g>
            <g>
                <path d="M0,357.273L86.3994,392.018L52.7374,513.59L0,413.116L0,357.273Z" style="fill:none;stroke-width:1px;stroke:rgb(77,77,77);"/>
                <path d="M0,357.273L86.3994,392.018L52.7374,513.59L0,413.116L0,357.273Z" style="fill:rgb(64,64,64);"/>
            </g>
            <g>
                <path d="M1145.74,0L1043.44,163.453L1061.44,22.0606L1001.26,0L1145.74,0Z" style="fill:none;stroke-width:1px;stroke:rgb(64,64,64);"/>
                <path d="M1145.74,0L1043.44,163.453L1061.44,22.0606L1001.26,0L1145.74,0Z" style="fill:rgb(64,64,64);"/>
            </g>
            <g>
                <path d="M910.785,0L1043.44,163.453L872.472,93.7593L872.472,0L910.785,0Z" style="fill:none;stroke-width:1px;stroke:rgb(77,77,77);"/>
                <path d="M910.785,0L1043.44,163.453L872.472,93.7593L872.472,0L910.785,0Z" style="fill:rgb(51,51,51);"/>
            </g>
            <g>
                <path d="M865.539,1000L812.261,1000L743.928,698.575L927.005,858.388L936.428,676.713L1035.16,665.5L1044.57,708.431L927.005,858.388L865.539,1000Z" style="fill:none;stroke-width:1px;stroke:rgb(79,79,79);"/>
                <path d="M865.539,1000L812.261,1000L743.928,698.575L927.005,858.388L936.428,676.713L1035.16,665.5L1044.57,708.431L927.005,858.388L865.539,1000Z" style="fill:rgb(77,77,77);"/>
            </g>
            <g>
                <path d="M1600,214.222L1493.04,403.328L1576.23,207.088L1600,175.818L1600,214.222Z" style="fill:none;stroke-width:1px;stroke:rgb(79,79,79);"/>
                <path d="M1600,214.222L1493.04,403.328L1576.23,207.088L1600,175.818L1600,214.222Z" style="fill:rgb(77,77,77);"/>
            </g>
            <g>
                <path d="M1098.01,365.538L955.784,303.512L1043.44,163.453L1098.01,365.538Z" style="fill:none;stroke-width:1px;stroke:rgb(79,79,79);"/>
                <path d="M1098.01,365.538L955.784,303.512L1043.44,163.453L1098.01,365.538Z" style="fill:rgb(77,77,77);"/>
            </g>
            <g>
                <path d="M642.465,0L872.472,93.7593L621.296,157.64L585.559,0L642.465,0Z" style="fill:none;stroke-width:1px;stroke:rgb(77,77,77);"/>
                <path d="M642.465,0L872.472,93.7593L621.296,157.64L585.559,0L642.465,0Z" style="fill:rgb(58,58,58);"/>
            </g>
            <g>
                <path d="M955.784,303.512L621.296,157.64L1043.44,163.453L955.784,303.512Z" style="fill:none;stroke-width:1px;stroke:rgb(77,77,77);"/>
                <path d="M955.784,303.512L621.296,157.64L1043.44,163.453L955.784,303.512Z" style="fill:rgb(38,38,38);"/>
            </g>
            <g>
                <path d="M0,773.978L0,704.054L52.7374,513.59L116.03,714.128L0,773.978Z" style="fill:none;stroke-width:1px;stroke:rgb(77,77,77);"/>
                <path d="M0,773.978L0,704.054L52.7374,513.59L116.03,714.128L0,773.978Z" style="fill:rgb(77,77,77);"/>
            </g>
            <g>
                <path d="M1600,640.898L1557.05,701.05L1522.87,550.82L1600,584.458L1600,640.898Z" style="fill:none;stroke-width:1px;stroke:rgb(77,77,77);"/>
                <path d="M1600,640.898L1557.05,701.05L1522.87,550.82L1600,584.458L1600,640.898Z" style="fill:rgb(38,38,38);"/>
            </g>
            <g>
                <path d="M259.826,0L342.877,36.2192L233.412,196.032L86.3994,392.018L60.017,275.402L233.412,196.032L150.853,159.241L194.945,0L259.826,0Z" style="fill:none;stroke-width:1px;stroke:rgb(64,64,64);"/>
                <path d="M259.826,0L342.877,36.2192L233.412,196.032L86.3994,392.018L60.017,275.402L233.412,196.032L150.853,159.241L194.945,0L259.826,0Z" style="fill:rgb(64,64,64);"/>
            </g>
            <g>
                <path d="M135.751,443.895L52.7374,513.59L234.203,696.442L116.03,714.128L52.7374,513.59L86.3994,392.018L135.751,443.895Z" style="fill:none;stroke-width:1px;stroke:rgb(77,77,77);"/>
                <path d="M135.751,443.895L52.7374,513.59L234.203,696.442L116.03,714.128L52.7374,513.59L86.3994,392.018L135.751,443.895Z" style="fill:rgb(38,38,38);"/>
            </g>
            <g>
                <path d="M307.288,624.209L358.332,677.865L310.844,684.972L307.288,624.209L135.751,443.895L289.195,315.072Z" style="fill:none;stroke-width:1px;stroke:rgb(64,64,64);"/>
                <path d="M307.288,624.209L358.332,677.865L310.844,684.972L307.288,624.209L135.751,443.895L289.195,315.072Z" style="fill:rgb(64,64,64);"/>
            </g>
            <g>
                <path d="M516.692,844.329L358.332,677.865L439.892,665.658L516.692,844.329Z" style="fill:none;stroke-width:1px;stroke:rgb(79,79,79);"/>
                <path d="M516.692,844.329L358.332,677.865L439.892,665.658L516.692,844.329Z" style="fill:rgb(79,79,79);"/>
            </g>
            <g>
                <path d="M358.332,677.865L516.692,844.329L116.03,714.128L234.203,696.442L316.361,779.228L310.844,684.972L358.332,677.865Z" style="fill:none;stroke-width:1px;stroke:rgb(51,51,51);"/>
                <path d="M358.332,677.865L516.692,844.329L116.03,714.128L234.203,696.442L316.361,779.228L310.844,684.972L358.332,677.865Z" style="fill:rgb(51,51,51);"/>
            </g>
            <g>
                <path d="M743.928,698.575L461.664,249.632L694.799,481.865Z" style="fill:none;stroke-width:1px;stroke:rgb(77,77,77);"/>
                <path d="M743.928,698.575L461.664,249.632L694.799,481.865Z" style="fill:rgb(38,38,38);"/>
            </g>
            <g>
                <path d="M955.784,303.512L936.428,676.713L743.928,698.575L734.515,657.055L955.784,303.512Z" style="fill:none;stroke-width:1px;stroke:rgb(51,51,51);"/>
                <path d="M955.784,303.512L936.428,676.713L743.928,698.575L734.515,657.055L955.784,303.512Z" style="fill:rgb(51,51,51);"/>
            </g>
            <g>
                <path d="M936.428,676.713L927.005,858.388L743.928,698.575L936.428,676.713Z" style="fill:none;stroke-width:1px;stroke:rgb(77,77,77);"/>
                <path d="M936.428,676.713L927.005,858.388L743.928,698.575L936.428,676.713Z" style="fill:rgb(58,58,58);"/>
            </g>
            <g>
                <path d="M1098.01,365.538L1174.73,649.649L955.784,303.512L1098.01,365.538Z" style="fill:none;stroke-width:1px;stroke:rgb(51,51,51);"/>
                <path d="M1098.01,365.538L1174.73,649.649L955.784,303.512L1098.01,365.538Z" style="fill:rgb(51,51,51);"/>
            </g>
            <g>
                <path d="M1427.67,677.161L1174.73,649.649L1392.89,595.477L1522.87,550.82L1427.67,677.161Z" style="fill:none;stroke-width:1px;stroke:rgb(79,79,79);"/>
                <path d="M1427.67,677.161L1174.73,649.649L1392.89,595.477L1522.87,550.82L1427.67,677.161Z" style="fill:rgb(79,79,79);"/>
            </g>
            <g>
                <path d="M694.829,342.02L461.664,249.632L698.556,237.961L955.784,303.512L694.829,342.02Z" style="fill:none;stroke-width:1px;stroke:rgb(64,64,64);"/>
                <path d="M694.829,342.02L461.664,249.632L698.556,237.961L955.784,303.512L694.829,342.02Z" style="fill:rgb(64,64,64);"/>
            </g>
            <g>
                <path d="M694.799,481.865L461.664,249.632L694.829,342.02L955.784,303.512L694.799,481.865Z" style="fill:none;stroke-width:1px;stroke:rgb(51,51,51);"/>
                <path d="M694.799,481.865L461.664,249.632L694.829,342.02L955.784,303.512L694.799,481.865Z" style="fill:rgb(51,51,51);"/>
            </g>
            <g>
                <path d="M743.928,698.575L556.004,648.281L524.016,513.111L743.928,698.575Z" style="fill:none;stroke-width:1px;stroke:rgb(77,77,77);"/>
                <path d="M743.928,698.575L556.004,648.281L524.016,513.111L743.928,698.575Z" style="fill:rgb(61,61,61);"/>
            </g>
            <g>
                <path d="M316.361,779.228L234.203,696.442L310.844,684.972L316.361,779.228Z" style="fill:none;stroke-width:1px;stroke:rgb(77,77,77);"/>
                <path d="M316.361,779.228L234.203,696.442L310.844,684.972L316.361,779.228Z" style="fill:rgb(64,64,64);"/>
            </g>
            <g>
                <path d="M0,92.0175L150.853,159.241L60.017,275.402L0,268.483L0,92.0175Z" style="fill:none;stroke-width:1px;stroke:rgb(51,51,51);"/>
                <path d="M0,92.0175L150.853,159.241L60.017,275.402L0,268.483L0,92.0175Z" style="fill:rgb(51,51,51);"/>
            </g>
            <g>
                <path d="M60.017,275.402L150.853,159.241L233.412,196.032L60.017,275.402Z" style="fill:none;stroke-width:1px;stroke:rgb(64,64,64);"/>
                <path d="M60.017,275.402L150.853,159.241L233.412,196.032L60.017,275.402Z" style="fill:rgb(77,77,77);"/>
            </g>
            <g>
                <path d="M1600,175.818L1576.23,207.088L1430.05,119.533L1600,115.093L1600,175.818Z" style="fill:none;stroke-width:1px;stroke:rgb(79,79,79);"/>
                <path d="M1600,175.818L1576.23,207.088L1430.05,119.533L1600,115.093L1600,175.818Z" style="fill:rgb(79,79,79);"/>
            </g>
            <g>
                <path d="M726.66,1000L661.644,1000L516.692,844.329L743.928,698.575L726.66,1000Z" style="fill:none;stroke-width:1px;stroke:rgb(51,51,51);"/>
                <path d="M726.66,1000L661.644,1000L516.692,844.329L743.928,698.575L726.66,1000Z" style="fill:rgb(51,51,51);"/>
            </g>
            <g>
                <path d="M461.664,249.632L342.877,36.2192L308.707,213.713L233.412,196.032L342.877,36.2192L470.298,0L461.664,249.632Z" style="fill:none;stroke-width:1px;stroke:rgb(64,64,64);"/>
                <path d="M461.664,249.632L342.877,36.2192L308.707,213.713L233.412,196.032L342.877,36.2192L470.298,0L461.664,249.632Z" style="fill:rgb(77,77,77);"/>
            </g>
            <g>
                <path d="M308.707,213.713L289.195,315.072L233.412,196.032L308.707,213.713Z" style="fill:none;stroke-width:1px;stroke:rgb(77,77,77);"/>
                <path d="M308.707,213.713L289.195,315.072L233.412,196.032L308.707,213.713Z" style="fill:rgb(38,38,38);"/>
            </g>
            <g>
                <path d="M461.664,249.632L308.707,213.713L342.877,36.2192L461.664,249.632Z" style="fill:none;stroke-width:1px;stroke:rgb(51,51,51);"/>
                <path d="M461.664,249.632L308.707,213.713L342.877,36.2192L461.664,249.632Z" style="fill:rgb(51,51,51);"/>
            </g>
            <g>
                <path d="M308.707,213.713L461.664,249.632L289.195,315.072L308.707,213.713Z" style="fill:none;stroke-width:1px;stroke:rgb(77,77,77);"/>
                <path d="M308.707,213.713L461.664,249.632L289.195,315.072L308.707,213.713Z" style="fill:rgb(58,58,58);"/>
            </g>
            <g>
                <path d="M524.016,513.111L289.195,315.072L461.664,249.632L524.016,513.111Z" style="fill:none;stroke-width:1px;stroke:rgb(51,51,51);"/>
                <path d="M524.016,513.111L289.195,315.072L461.664,249.632L524.016,513.111Z" style="fill:rgb(51,51,51);"/>
            </g>
            <g>
                <path d="M524.016,513.111L556.004,648.281L289.195,315.072L524.016,513.111Z" style="fill:none;stroke-width:1px;stroke:rgb(51,51,51);"/>
                <path d="M524.016,513.111L556.004,648.281L289.195,315.072L524.016,513.111Z" style="fill:rgb(51,51,51);"/>
            </g>
            <g>
                <path d="M585.559,0L621.296,157.64L461.664,249.632L568.796,0L585.559,0Z" style="fill:none;stroke-width:1px;stroke:rgb(64,64,64);"/>
                <path d="M585.559,0L621.296,157.64L461.664,249.632L568.796,0L585.559,0Z" style="fill:rgb(77,77,77);"/>
            </g>
            <g>
                <path d="M865.539,1000L927.005,858.388L1044.57,708.431L1090.18,755.522L894.935,1000L865.539,1000Z" style="fill:none;stroke-width:1px;stroke:rgb(51,51,51);"/>
                <path d="M865.539,1000L927.005,858.388L1044.57,708.431L1090.18,755.522L894.935,1000L865.539,1000Z" style="fill:rgb(51,51,51);"/>
            </g>
            <g>
                <path d="M1035.16,665.5L955.784,303.512L1174.73,649.649L1408.91,784.861L1206.22,875.35L1090.18,755.522L1174.73,649.649L1035.16,665.5Z" style="fill:none;stroke-width:1px;stroke:rgb(64,64,64);"/>
                <path d="M1035.16,665.5L955.784,303.512L1174.73,649.649L1408.91,784.861L1206.22,875.35L1090.18,755.522L1174.73,649.649L1035.16,665.5Z" style="fill:rgb(64,64,64);"/>
            </g>
            <g>
                <path d="M1044.57,708.431L1035.16,665.5L1174.73,649.649L1044.57,708.431Z" style="fill:none;stroke-width:1px;stroke:rgb(77,77,77);"/>
                <path d="M1044.57,708.431L1035.16,665.5L1174.73,649.649L1044.57,708.431Z" style="fill:rgb(61,61,61);"/>
            </g>
            <g>
                <path d="M1090.18,755.522L1044.57,708.431L1174.73,649.649L1090.18,755.522Z" style="fill:none;stroke-width:1px;stroke:rgb(77,77,77);"/>
                <path d="M1090.18,755.522L1044.57,708.431L1174.73,649.649L1090.18,755.522Z" style="fill:rgb(38,38,38);"/>
            </g>
            <g>
                <path d="M1430.05,119.533L1263.44,71.8878L1043.44,163.453L1214.87,0L1345.46,0L1430.05,119.533Z" style="fill:none;stroke-width:1px;stroke:rgb(64,64,64);"/>
                <path d="M1430.05,119.533L1263.44,71.8878L1043.44,163.453L1214.87,0L1345.46,0L1430.05,119.533Z" style="fill:rgb(64,64,64);"/>
            </g>
            <g>
                <path d="M1215.99,416.991L1098.01,365.538L1043.44,163.453L1263.44,71.8878L1430.05,119.533L1248.92,211.431L1043.44,163.453L1215.99,416.991Z" style="fill:none;stroke-width:1px;stroke:rgb(77,77,77);"/>
                <path d="M1215.99,416.991L1098.01,365.538L1043.44,163.453L1263.44,71.8878L1430.05,119.533L1248.92,211.431L1043.44,163.453L1215.99,416.991Z" style="fill:rgb(58,58,58);"/>
            </g>
            <g>
                <path d="M1522.87,550.82L1493.04,403.328L1215.99,416.991L1387.75,268.08L1493.04,403.328L1513,197.535L1576.23,207.088L1493.04,403.328L1600,214.222L1600,392.717L1493.04,403.328L1600,415.636L1600,491.793L1522.87,550.82Z" style="fill:none;stroke-width:1px;stroke:rgb(51,51,51);"/>
                <path d="M1522.87,550.82L1493.04,403.328L1215.99,416.991L1387.75,268.08L1493.04,403.328L1513,197.535L1576.23,207.088L1493.04,403.328L1600,214.222L1600,392.717L1493.04,403.328L1600,415.636L1600,491.793L1522.87,550.82Z" style="fill:rgb(51,51,51);"/>
            </g>
            <g>
                <path d="M1174.73,649.649L1098.01,365.538L1215.99,416.991C1215.99,416.991 1174.73,649.649 1174.73,649.649Z" style="fill:none;stroke-width:1px;stroke:rgb(64,64,64);"/>
                <path d="M1174.73,649.649L1098.01,365.538L1215.99,416.991C1215.99,416.991 1174.73,649.649 1174.73,649.649Z" style="fill:rgb(61,61,61);"/>
            </g>
            <g>
                <path d="M1522.87,550.82L1392.89,595.477L1174.73,649.649L1381.89,489.34L1522.87,550.82Z" style="fill:none;stroke-width:1px;stroke:rgb(51,51,51);"/>
                <path d="M1522.87,550.82L1392.89,595.477L1174.73,649.649L1381.89,489.34L1522.87,550.82Z" style="fill:rgb(51,51,51);"/>
            </g>
            <g>
                <path d="M1522.87,550.82L1381.89,489.34L1493.04,403.328L1522.87,550.82Z" style="fill:none;stroke-width:1px;stroke:rgb(77,77,77);"/>
                <path d="M1522.87,550.82L1381.89,489.34L1493.04,403.328L1522.87,550.82Z" style="fill:rgb(64,64,64);"/>
            </g>
            <g>
                <path d="M1493.04,403.328L1387.75,268.08L1513,197.535L1430.05,119.533L1576.23,207.088L1513,197.535L1493.04,403.328Z" style="fill:none;stroke-width:1px;stroke:rgb(51,51,51);"/>
                <path d="M1493.04,403.328L1387.75,268.08L1513,197.535L1430.05,119.533L1576.23,207.088L1513,197.535L1493.04,403.328Z" style="fill:rgb(51,51,51);"/>
            </g>
            <g>
                <path d="M1493.04,403.328L1174.73,649.649L1215.99,416.991L1381.89,489.34L1493.04,403.328Z" style="fill:none;stroke-width:1px;stroke:rgb(77,77,77);"/>
                <path d="M1493.04,403.328L1174.73,649.649L1215.99,416.991L1381.89,489.34L1493.04,403.328Z" style="fill:rgb(64,64,64);"/>
            </g>
            <g>
                <path d="M1381.89,489.34L1215.99,416.991L1493.04,403.328L1381.89,489.34Z" style="fill:none;stroke-width:1px;stroke:rgb(51,51,51);"/>
                <path d="M1381.89,489.34L1215.99,416.991L1493.04,403.328L1381.89,489.34Z" style="fill:rgb(51,51,51);"/>
            </g>
            <g>
                <path d="M1215.99,416.991L1430.05,119.533L1387.75,268.08L1215.99,416.991Z" style="fill:none;stroke-width:1px;stroke:rgb(51,51,51);"/>
                <path d="M1215.99,416.991L1430.05,119.533L1387.75,268.08L1215.99,416.991Z" style="fill:rgb(51,51,51);"/>
            </g>
            <g>
                <path d="M1387.75,268.08L1430.05,119.533L1513,197.535L1387.75,268.08Z" style="fill:none;stroke-width:1px;stroke:rgb(77,77,77);"/>
                <path d="M1387.75,268.08L1430.05,119.533L1513,197.535L1387.75,268.08Z" style="fill:rgb(38,38,38);"/>
            </g>
            <g>
                <path d="M1043.44,163.453L910.785,0L1001.26,0L1061.44,22.0606L1043.44,163.453Z" style="fill:none;stroke-width:1px;stroke:rgb(77,77,77);"/>
                <path d="M1043.44,163.453L910.785,0L1001.26,0L1061.44,22.0606L1043.44,163.453Z" style="fill:rgb(51,51,51);"/>
            </g>
            <g>
                <path d="M1215.99,416.991L1043.44,163.453L1248.92,211.431L1215.99,416.991Z" style="fill:none;stroke-width:1px;stroke:rgb(51,51,51);"/>
                <path d="M1215.99,416.991L1043.44,163.453L1248.92,211.431L1215.99,416.991Z" style="fill:rgb(51,51,51);"/>
            </g>
            <g>
                <path d="M1248.92,211.431L1430.05,119.533L1215.99,416.991L1248.92,211.431Z" style="fill:none;stroke-width:1px;stroke:rgb(77,77,77);"/>
                <path d="M1248.92,211.431L1430.05,119.533L1215.99,416.991L1248.92,211.431Z" style="fill:rgb(64,64,64);"/>
            </g>
            <g>
                <path d="M1600,758.092L1600,860.795L1408.91,784.861L1557.05,701.05L1600,758.092Z" style="fill:none;stroke-width:1px;stroke:rgb(79,79,79);"/>
                <path d="M1600,758.092L1600,860.795L1408.91,784.861L1557.05,701.05L1600,758.092Z" style="fill:rgb(79,79,79);"/>
            </g>
            <g>
                <path d="M1600,392.717L1600,415.636L1493.04,403.328L1600,392.717Z" style="fill:none;stroke-width:1px;stroke:rgb(77,77,77);"/>
                <path d="M1600,392.717L1600,415.636L1493.04,403.328L1600,392.717Z" style="fill:rgb(64,64,64);"/>
            </g>
            <g>
                <path d="M52.7374,513.59L135.751,443.895L307.288,624.209L310.844,684.972L234.203,696.442L52.7374,513.59Z" style="fill:none;stroke-width:1px;stroke:rgb(51,51,51);"/>
                <path d="M52.7374,513.59L135.751,443.895L307.288,624.209L310.844,684.972L234.203,696.442L52.7374,513.59Z" style="fill:rgb(51,51,51);"/>
            </g>
            <g>
                <path d="M86.3994,392.018L135.751,443.895L289.195,315.072L86.3994,392.018Z" style="fill:none;stroke-width:1px;stroke:rgb(51,51,51);"/>
                <path d="M86.3994,392.018L135.751,443.895L289.195,315.072L86.3994,392.018Z" style="fill:rgb(51,51,51);"/>
            </g>
            <g>
                <path d="M289.195,315.072L307.288,624.209L358.332,677.865L439.892,665.658L289.195,315.072Z" style="fill:none;stroke-width:1px;stroke:rgb(51,51,51);"/>
                <path d="M289.195,315.072L307.288,624.209L358.332,677.865L439.892,665.658L289.195,315.072Z" style="fill:rgb(51,51,51);"/>
            </g>
        </g>
    </g>
</svg>
